{
    "asset" : {
        "generator" : "Khronos glTF Blender I/O v1.4.40",
        "version" : "2.0"
    },
    "scene" : 0,
    "scenes" : [
        {
            "name" : "Scene",
            "nodes" : [
                5,
                6
            ]
        }
    ],
    "nodes" : [
        {
            "name" : "Mag",
            "rotation" : [
                -2.1086536960979174e-09,
                -2.8692607401126224e-08,
                0.26960787177085876,
                0.9629701972007751
            ],
            "translation" : [
                1.9052678346633911,
                1.027763843536377,
                1.3808912058266287e-07
            ]
        },
        {
            "name" : "Trigger",
            "rotation" : [
                3.7865369506562274e-08,
                -1.4660407998690062e-07,
                0.3594115078449249,
                0.9331791996955872
            ],
            "scale" : [
                1,
                0.9999999403953552,
                1
            ],
            "translation" : [
                -0.3904452323913574,
                -0.520880937576294,
                -1.509208971128828e-07
            ]
        },
        {
            "name" : "Bolt",
            "rotation" : [
                5.3460212257050443e-08,
                -1.4728823316545459e-07,
                0.8574747443199158,
                0.5145261287689209
            ],
            "scale" : [
                1.0000001192092896,
                0.9999999403953552,
                1
            ],
            "translation" : [
                -0.5488075017929077,
                -1.612494945526123,
                -4.5117093350199866e-07
            ]
        },
        {
            "name" : "BulletEject",
            "rotation" : [
                -8.958664921010495e-08,
                -6.280873066089043e-08,
                0.8611233234405518,
                0.5083962082862854
            ],
            "scale" : [
                1.0000001192092896,
                1,
                1
            ],
            "translation" : [
                2.4964184761047363,
                0.4636431932449341,
                -3.1601977923401137e-08
            ]
        },
        {
            "children" : [
                0,
                1,
                2,
                3
            ],
            "name" : "Famas"
        },
        {
            "mesh" : 0,
            "name" : "Famas",
            "skin" : 0
        },
        {
            "children" : [
                4
            ],
            "name" : "Famas_Armatuee",
            "rotation" : [
                0,
                0,
                0.9656329154968262,
                0.25990980863571167
            ],
            "scale" : [
                0.40864846110343933,
                0.40864846110343933,
                0.40864840149879456
            ],
            "translation" : [
                -0.12320183217525482,
                -0.135250061750412,
                -8.199447620427236e-06
            ]
        }
    ],
    "animations" : [
        {
            "channels" : [
                {
                    "sampler" : 0,
                    "target" : {
                        "node" : 4,
                        "path" : "translation"
                    }
                },
                {
                    "sampler" : 1,
                    "target" : {
                        "node" : 4,
                        "path" : "rotation"
                    }
                },
                {
                    "sampler" : 2,
                    "target" : {
                        "node" : 4,
                        "path" : "scale"
                    }
                },
                {
                    "sampler" : 3,
                    "target" : {
                        "node" : 0,
                        "path" : "translation"
                    }
                },
                {
                    "sampler" : 4,
                    "target" : {
                        "node" : 0,
                        "path" : "rotation"
                    }
                },
                {
                    "sampler" : 5,
                    "target" : {
                        "node" : 0,
                        "path" : "scale"
                    }
                },
                {
                    "sampler" : 6,
                    "target" : {
                        "node" : 1,
                        "path" : "translation"
                    }
                },
                {
                    "sampler" : 7,
                    "target" : {
                        "node" : 1,
                        "path" : "rotation"
                    }
                },
                {
                    "sampler" : 8,
                    "target" : {
                        "node" : 1,
                        "path" : "scale"
                    }
                },
                {
                    "sampler" : 9,
                    "target" : {
                        "node" : 2,
                        "path" : "translation"
                    }
                },
                {
                    "sampler" : 10,
                    "target" : {
                        "node" : 2,
                        "path" : "rotation"
                    }
                },
                {
                    "sampler" : 11,
                    "target" : {
                        "node" : 2,
                        "path" : "scale"
                    }
                },
                {
                    "sampler" : 12,
                    "target" : {
                        "node" : 3,
                        "path" : "translation"
                    }
                },
                {
                    "sampler" : 13,
                    "target" : {
                        "node" : 3,
                        "path" : "rotation"
                    }
                },
                {
                    "sampler" : 14,
                    "target" : {
                        "node" : 3,
                        "path" : "scale"
                    }
                }
            ],
            "name" : "Firing",
            "samplers" : [
                {
                    "input" : 13,
                    "interpolation" : "LINEAR",
                    "output" : 14
                },
                {
                    "input" : 13,
                    "interpolation" : "LINEAR",
                    "output" : 15
                },
                {
                    "input" : 13,
                    "interpolation" : "LINEAR",
                    "output" : 16
                },
                {
                    "input" : 13,
                    "interpolation" : "LINEAR",
                    "output" : 17
                },
                {
                    "input" : 13,
                    "interpolation" : "LINEAR",
                    "output" : 18
                },
                {
                    "input" : 13,
                    "interpolation" : "LINEAR",
                    "output" : 19
                },
                {
                    "input" : 13,
                    "interpolation" : "LINEAR",
                    "output" : 20
                },
                {
                    "input" : 13,
                    "interpolation" : "LINEAR",
                    "output" : 21
                },
                {
                    "input" : 13,
                    "interpolation" : "LINEAR",
                    "output" : 22
                },
                {
                    "input" : 13,
                    "interpolation" : "LINEAR",
                    "output" : 23
                },
                {
                    "input" : 13,
                    "interpolation" : "LINEAR",
                    "output" : 24
                },
                {
                    "input" : 13,
                    "interpolation" : "LINEAR",
                    "output" : 25
                },
                {
                    "input" : 13,
                    "interpolation" : "LINEAR",
                    "output" : 26
                },
                {
                    "input" : 13,
                    "interpolation" : "LINEAR",
                    "output" : 27
                },
                {
                    "input" : 13,
                    "interpolation" : "LINEAR",
                    "output" : 28
                }
            ]
        }
    ],
    "materials" : [
        {
            "doubleSided" : true,
            "name" : "Black",
            "pbrMetallicRoughness" : {
                "baseColorFactor" : [
                    0.02909950166940689,
                    0.02909950166940689,
                    0.02909950166940689,
                    1
                ],
                "metallicFactor" : 0,
                "roughnessFactor" : 0.5
            }
        },
        {
            "doubleSided" : true,
            "name" : "BulletCover",
            "pbrMetallicRoughness" : {
                "baseColorFactor" : [
                    0.800000011920929,
                    0.800000011920929,
                    0.800000011920929,
                    1
                ],
                "metallicFactor" : 0,
                "roughnessFactor" : 0.5
            }
        }
    ],
    "meshes" : [
        {
            "name" : "Plane",
            "primitives" : [
                {
                    "attributes" : {
                        "POSITION" : 0,
                        "NORMAL" : 1,
                        "TEXCOORD_0" : 2,
                        "JOINTS_0" : 3,
                        "WEIGHTS_0" : 4
                    },
                    "indices" : 5,
                    "material" : 0
                },
                {
                    "attributes" : {
                        "POSITION" : 6,
                        "NORMAL" : 7,
                        "TEXCOORD_0" : 8,
                        "JOINTS_0" : 9,
                        "WEIGHTS_0" : 10
                    },
                    "indices" : 11,
                    "material" : 1
                }
            ]
        }
    ],
    "skins" : [
        {
            "inverseBindMatrices" : 12,
            "joints" : [
                4,
                0,
                1,
                2,
                3
            ],
            "name" : "Famas_Armatuee"
        }
    ],
    "accessors" : [
        {
            "bufferView" : 0,
            "componentType" : 5126,
            "count" : 4207,
            "max" : [
                1.5531479120254517,
                0.7226709127426147,
                0.19674158096313477
            ],
            "min" : [
                -2.097748279571533,
                -1.0051746368408203,
                -0.19675801694393158
            ],
            "type" : "VEC3"
        },
        {
            "bufferView" : 1,
            "componentType" : 5126,
            "count" : 4207,
            "type" : "VEC3"
        },
        {
            "bufferView" : 2,
            "componentType" : 5126,
            "count" : 4207,
            "type" : "VEC2"
        },
        {
            "bufferView" : 3,
            "componentType" : 5121,
            "count" : 4207,
            "type" : "VEC4"
        },
        {
            "bufferView" : 4,
            "componentType" : 5126,
            "count" : 4207,
            "type" : "VEC4"
        },
        {
            "bufferView" : 5,
            "componentType" : 5123,
            "count" : 14478,
            "type" : "SCALAR"
        },
        {
            "bufferView" : 6,
            "componentType" : 5126,
            "count" : 2252,
            "max" : [
                2.6091339588165283,
                0.534243643283844,
                0.13262102007865906
            ],
            "min" : [
                -1.1360423564910889,
                -0.9976577162742615,
                -0.11485451459884644
            ],
            "type" : "VEC3"
        },
        {
            "bufferView" : 7,
            "componentType" : 5126,
            "count" : 2252,
            "type" : "VEC3"
        },
        {
            "bufferView" : 8,
            "componentType" : 5126,
            "count" : 2252,
            "type" : "VEC2"
        },
        {
            "bufferView" : 9,
            "componentType" : 5121,
            "count" : 2252,
            "type" : "VEC4"
        },
        {
            "bufferView" : 10,
            "componentType" : 5126,
            "count" : 2252,
            "type" : "VEC4"
        },
        {
            "bufferView" : 11,
            "componentType" : 5123,
            "count" : 6942,
            "type" : "SCALAR"
        },
        {
            "bufferView" : 12,
            "componentType" : 5126,
            "count" : 5,
            "type" : "MAT4"
        },
        {
            "bufferView" : 13,
            "componentType" : 5126,
            "count" : 7,
            "max" : [
                0.23333333333333334
            ],
            "min" : [
                0.03333333333333333
            ],
            "type" : "SCALAR"
        },
        {
            "bufferView" : 14,
            "componentType" : 5126,
            "count" : 7,
            "type" : "VEC3"
        },
        {
            "bufferView" : 15,
            "componentType" : 5126,
            "count" : 7,
            "type" : "VEC4"
        },
        {
            "bufferView" : 16,
            "componentType" : 5126,
            "count" : 7,
            "type" : "VEC3"
        },
        {
            "bufferView" : 17,
            "componentType" : 5126,
            "count" : 7,
            "type" : "VEC3"
        },
        {
            "bufferView" : 18,
            "componentType" : 5126,
            "count" : 7,
            "type" : "VEC4"
        },
        {
            "bufferView" : 19,
            "componentType" : 5126,
            "count" : 7,
            "type" : "VEC3"
        },
        {
            "bufferView" : 20,
            "componentType" : 5126,
            "count" : 7,
            "type" : "VEC3"
        },
        {
            "bufferView" : 21,
            "componentType" : 5126,
            "count" : 7,
            "type" : "VEC4"
        },
        {
            "bufferView" : 22,
            "componentType" : 5126,
            "count" : 7,
            "type" : "VEC3"
        },
        {
            "bufferView" : 23,
            "componentType" : 5126,
            "count" : 7,
            "type" : "VEC3"
        },
        {
            "bufferView" : 24,
            "componentType" : 5126,
            "count" : 7,
            "type" : "VEC4"
        },
        {
            "bufferView" : 25,
            "componentType" : 5126,
            "count" : 7,
            "type" : "VEC3"
        },
        {
            "bufferView" : 26,
            "componentType" : 5126,
            "count" : 7,
            "type" : "VEC3"
        },
        {
            "bufferView" : 27,
            "componentType" : 5126,
            "count" : 7,
            "type" : "VEC4"
        },
        {
            "bufferView" : 28,
            "componentType" : 5126,
            "count" : 7,
            "type" : "VEC3"
        }
    ],
    "bufferViews" : [
        {
            "buffer" : 0,
            "byteLength" : 50484,
            "byteOffset" : 0
        },
        {
            "buffer" : 0,
            "byteLength" : 50484,
            "byteOffset" : 50484
        },
        {
            "buffer" : 0,
            "byteLength" : 33656,
            "byteOffset" : 100968
        },
        {
            "buffer" : 0,
            "byteLength" : 16828,
            "byteOffset" : 134624
        },
        {
            "buffer" : 0,
            "byteLength" : 67312,
            "byteOffset" : 151452
        },
        {
            "buffer" : 0,
            "byteLength" : 28956,
            "byteOffset" : 218764
        },
        {
            "buffer" : 0,
            "byteLength" : 27024,
            "byteOffset" : 247720
        },
        {
            "buffer" : 0,
            "byteLength" : 27024,
            "byteOffset" : 274744
        },
        {
            "buffer" : 0,
            "byteLength" : 18016,
            "byteOffset" : 301768
        },
        {
            "buffer" : 0,
            "byteLength" : 9008,
            "byteOffset" : 319784
        },
        {
            "buffer" : 0,
            "byteLength" : 36032,
            "byteOffset" : 328792
        },
        {
            "buffer" : 0,
            "byteLength" : 13884,
            "byteOffset" : 364824
        },
        {
            "buffer" : 0,
            "byteLength" : 320,
            "byteOffset" : 378708
        },
        {
            "buffer" : 0,
            "byteLength" : 28,
            "byteOffset" : 379028
        },
        {
            "buffer" : 0,
            "byteLength" : 84,
            "byteOffset" : 379056
        },
        {
            "buffer" : 0,
            "byteLength" : 112,
            "byteOffset" : 379140
        },
        {
            "buffer" : 0,
            "byteLength" : 84,
            "byteOffset" : 379252
        },
        {
            "buffer" : 0,
            "byteLength" : 84,
            "byteOffset" : 379336
        },
        {
            "buffer" : 0,
            "byteLength" : 112,
            "byteOffset" : 379420
        },
        {
            "buffer" : 0,
            "byteLength" : 84,
            "byteOffset" : 379532
        },
        {
            "buffer" : 0,
            "byteLength" : 84,
            "byteOffset" : 379616
        },
        {
            "buffer" : 0,
            "byteLength" : 112,
            "byteOffset" : 379700
        },
        {
            "buffer" : 0,
            "byteLength" : 84,
            "byteOffset" : 379812
        },
        {
            "buffer" : 0,
            "byteLength" : 84,
            "byteOffset" : 379896
        },
        {
            "buffer" : 0,
            "byteLength" : 112,
            "byteOffset" : 379980
        },
        {
            "buffer" : 0,
            "byteLength" : 84,
            "byteOffset" : 380092
        },
        {
            "buffer" : 0,
            "byteLength" : 84,
            "byteOffset" : 380176
        },
        {
            "buffer" : 0,
            "byteLength" : 112,
            "byteOffset" : 380260
        },
        {
            "buffer" : 0,
            "byteLength" : 84,
            "byteOffset" : 380372
        }
    ],
    "buffers" : [
        {
            "byteLength" : 380456,
            "uri" : "data:application/octet-stream;base64,"
        }
    ]
}
